HIERARCHY
ROOT Hips
{
  OFFSET -209.198 93.6991 12.2066
  CHANNELS 6 Xposition Yposition Zposition Zrotation Xrotation Yrotation
  JOINT ToSpine
  {
    OFFSET -2.69724 7.43032 -0.144315
    CHANNELS 3 Zrotation Xrotation Yrotation
    JOINT Spine
    {
      OFFSET -0.0310711 10.7595 1.96963
      CHANNELS 3 Zrotation Xrotation Yrotation
      JOINT Spine1
      {
        OFFSET 13.1342 3.43533 0.764692
        CHANNELS 3 Zrotation Xrotation Yrotation
        JOINT Neck
        {
          OFFSET 29.8703 7.82586 -0.130764
          CHANNELS 3 Zrotation Xrotation Yrotation
          JOINT Head
          {
            OFFSET 9.52751 0.295786 -0.907742
            CHANNELS 3 Zrotation Xrotation Yrotation
            End Site
            {
              OFFSET 16.4037 0.713936 2.7358
            }
          }
        }
        JOINT LeftShoulder
        {
          OFFSET 27.5574 4.95586 2.47156
          CHANNELS 3 Zrotation Xrotation Yrotation
          JOINT LeftArm
          {
            OFFSET 1.20734 -0.998971 20.1238
            CHANNELS 3 Zrotation Xrotation Yrotation
            JOINT LeftForeArm
            {
              OFFSET 26.8049 -0.0536703 -0.155908
              CHANNELS 3 Zrotation Xrotation Yrotation
              JOINT LeftHand
              {
                OFFSET 26.6817 0 0.320147
                CHANNELS 3 Zrotation Xrotation Yrotation
                End Site
                {
                  OFFSET 18.6119 0 0.382219
                }
              }
            }
          }
        }
        JOINT RightShoulder
        {
          OFFSET 27.5927 4.71444 -2.65209
          CHANNELS 3 Zrotation Xrotation Yrotation
          JOINT RightArm
          {
            OFFSET 2.83739 -1.17114 -18.7564
            CHANNELS 3 Zrotation Xrotation Yrotation
            JOINT RightForeArm
            {
              OFFSET 28.839 -0.0548439 1.22491
              CHANNELS 3 Zrotation Xrotation Yrotation
              JOINT RightHand
              {
                OFFSET 26.5114 0 -0.101894
                CHANNELS 3 Zrotation Xrotation Yrotation
                End Site
                {
                  OFFSET 18.2168 0 0
                }
              }
            }
          }
        }
      }
    }
  }
  JOINT LeftUpLeg
  {
    OFFSET -4.76168 -1.9167 -10.2353
    CHANNELS 3 Zrotation Xrotation Yrotation
    JOINT LeftLeg
    {
      OFFSET 2.55951 -42.0585 -8.02213
      CHANNELS 3 Zrotation Xrotation Yrotation
      JOINT LeftFoot
      {
        OFFSET 3.16357 -42.5282 -3.95426
        CHANNELS 3 Zrotation Xrotation Yrotation
        JOINT LeftToeBase
        {
          OFFSET 0.346054 -6.02161 12.8035
          CHANNELS 3 Zrotation Xrotation Yrotation
          End Site
          {
            OFFSET 0.134235 -1.35082 5.13018
          }
        }
      }
    }
  }
  JOINT RightUpLeg
  {
    OFFSET -4.94151 -1.41743 10.6446
    CHANNELS 3 Zrotation Xrotation Yrotation
    JOINT RightLeg
    {
      OFFSET -2.56294 -42.0364 -7.94377
      CHANNELS 3 Zrotation Xrotation Yrotation
      JOINT RightFoot
      {
        OFFSET -3.0952 -42.555 -4.02241
        CHANNELS 3 Zrotation Xrotation Yrotation
        JOINT RightToeBase
        {
          OFFSET -0.0828122 -6.13587 12.8035
          CHANNELS 3 Zrotation Xrotation Yrotation
          End Site
          {
            OFFSET -0.131328 -1.35082 5.13018
          }
        }
      }
    }
  }
}
MOTION
Frames:	18
Frame Time:	0.0333333
42.5296 97.6724 -281.196 1.90792 -67.4653 -87.9049 -70.1915 0 88.8779 63.1101 69.5572 26.7853 5.70021 21.333 0.453181 -160.189 20.9735 175.414 -158.52 60.1733 -177.125 -0.636851 -16.7481 -36.3715 -64.3138 45.689 -91.891 9.25236 16.1043 -30.0574 0.420957 0.000575423 0.35866 -2.24684 6.59756 48.2914 -53.2507 -29.345 102.026 5.56825 -11.9879 26.8448 0.58676 0.00033116 0.0646654 -49.0507 -4.84402 94.3054 -0.855646 29.3269 -9.38855 5.91328 -14.2369 -1.24358 -1.94225 0.0401164 9.39504 -52.9524 2.86481 81.7259 1.95965 20.1274 12.7389 -10.7545 -8.0447 1.41478 1.98592 -5.50295 -11.5924 
42.8122 97.4992 -280.795 2.51096 -67.5201 -86.9829 -70.1915 0 88.8779 63.2819 69.4839 26.804 5.9762 21.2676 0.307844 -159.24 20.97 174.832 -157.039 60.0786 -177.073 -0.593867 -16.6182 -36.2195 -63.8017 45.655 -92.3418 8.89673 15.4052 -30.1546 0.420957 0.000575423 0.35866 -2.23226 6.50843 48.5309 -54.1803 -29.4656 101.244 5.37054 -10.5406 27.5679 0.58676 0.00033116 0.0646654 -48.8323 -5.06149 93.2044 -1.00166 30.4609 -8.40126 5.5841 -15.3375 -1.2772 -2.40349 1.4236 8.0341 -52.6 3.39944 82.2588 1.30732 21.4606 12.2901 -11.391 -8.29413 1.44752 2.28924 -6.96965 -14.2737 
43.0138 97.4043 -280.369 3.57931 -67.7172 -85.6486 -70.1915 0 88.8779 63.8559 69.608 25.4891 5.88967 20.965 1.1789 -159.637 20.9482 175.109 -157.936 60.1573 -176.29 -0.622559 -16.6762 -36.4417 -63.2209 45.5852 -92.8282 8.21973 14.3116 -29.9706 0.420957 0.000575423 0.35866 -2.19147 6.48144 48.0765 -54.486 -29.664 100.971 6.20206 -12.2368 27.5751 0.58676 0.00033116 0.0646654 -49.1124 -5.11208 92.9807 -0.964326 30.9185 -9.31001 5.36508 -15.8827 -1.297 -2.44864 1.20854 8.75659 -52.3357 3.97847 82.9998 0.702988 22.8291 11.3024 -12.9359 -7.8752 1.55134 2.34645 -9.95421 -15.1142 
43.2752 97.0407 -280.015 3.75633 -67.7833 -85.6701 -70.1915 0 88.8779 65.4035 69.9176 23.298 5.22556 20.8654 1.5445 -159.52 20.9135 175.088 -157.357 60.0601 -176.786 -0.59693 -16.5925 -36.3782 -63.7362 45.9732 -92.3557 8.72015 14.8515 -30.5486 0.420957 0.000575423 0.35866 -2.26115 6.63947 48.2865 -56.4329 -30.0941 99.4857 6.71399 -12.7824 28.1861 0.58676 0.00033116 0.0646654 -48.678 -5.63889 92.1786 -1.25979 32.5983 -7.73064 5.06538 -17.5145 -1.36009 -2.28083 1.59331 7.08454 -50.5029 4.50481 85.2011 0.40307 27.1462 10.192 -13.3482 -9.26356 1.52285 2.75148 -10.7259 -21.1196 
43.5074 96.7453 -279.674 4.01219 -67.9538 -85.9023 -70.1915 0 88.8779 67.3206 70.4282 20.1954 4.60051 20.937 1.92506 -159.593 20.7256 174.559 -156.791 59.8457 -176.591 -0.577979 -16.67 -35.7458 -63.4822 45.9733 -92.8314 8.80397 14.9735 -30.5892 0.420957 0.000575423 0.35866 -2.20658 6.44849 48.4641 -56.7504 -29.9468 99.4376 6.34825 -12.2127 27.9409 0.58676 0.00033116 0.0646654 -49.1051 -5.93561 93.1931 -1.65863 32.7725 -10.541 6.94279 -16.3212 -1.28698 -1.56899 -1.27177 11.196 -47.3746 5.11054 90.4278 1.16246 33.4465 0.589363 -8.99838 -11.8893 1.30788 2.17284 -9.34465 -12.8925 
43.7729 96.542 -279.293 3.51691 -68.1748 -86.8177 -70.1915 0 88.8779 70.8837 70.8234 16.2724 3.77873 21.0562 1.41588 -159.206 20.5331 173.729 -155.538 59.5269 -177.256 -0.55161 -16.6406 -35.4369 -63.7021 45.5315 -92.7329 9.05734 15.0781 -31.1409 0.420957 0.000575423 0.35866 -2.23845 6.36553 49.3615 -59.5641 -30.1362 97.4717 6.78379 -12.3203 29.3269 0.58676 0.00033116 0.0646654 -49.2121 -6.57348 92.7403 -1.81396 33.6678 -9.74719 6.37927 -16.8781 -1.30949 -1.42835 -1.07215 9.92969 -44.0045 5.05294 91.046 1.84336 40.3669 1.12983 -5.43833 -11.2262 1.19517 2.61946 -12.6564 -20.9163 
44.0591 96.2492 -278.721 3.94053 -68.0851 -86.594 -70.1915 0 88.8779 71.9021 70.759 14.8109 3.8535 20.7569 1.63586 -159.624 20.3438 175.268 -156.941 59.5582 -175.257 -0.626922 -16.74 -36.2464 -62.8784 44.0902 -93.4573 9.13122 14.9408 -31.5799 0.420957 0.000575423 0.35866 -2.20806 6.46699 48.3912 -61.7426 -31.4899 96.8098 7.03939 -12.4858 29.8996 0.58676 0.00033116 0.0646654 -48.9319 -6.88894 92.9055 -1.79289 34.5441 -8.11807 6.00066 -18.3911 -1.35989 -1.51338 0.167349 7.03209 -40.5008 4.42554 89.8936 1.70723 45.3927 -2.89353 -8.70177 -10.6264 1.29748 2.25472 -15.5643 -13.6176 
44.3747 96.2263 -277.908 5.07459 -67.7461 -84.9492 -70.1915 0 88.8779 72.3433 70.502 14.7079 3.8472 20.4312 1.8092 -158.833 20.3461 174.953 -155.083 59.3453 -176.853 -0.79403 -17.2647 -36.7134 -62.6418 43.1564 -93.9247 8.72028 14.1499 -31.7595 0.420957 0.000575423 0.35866 -2.16026 6.24604 48.8358 -63.8582 -31.4484 94.7526 7.17386 -12.2926 30.7382 0.58676 0.00033116 0.0646654 -49.1683 -6.9542 92.1735 -1.81164 34.802 -9.38433 6.73118 -18.1658 -1.32975 -1.23728 -1.12575 9.1253 -37.5737 4.32616 88.6855 2.21281 47.8255 -1.16419 -9.01873 -10.2369 1.30948 2.30186 -16.6859 -16.4539 
44.5187 96.2668 -276.711 6.75062 -67.8463 -82.8489 -70.1915 0 88.8779 72.3638 69.8764 14.4846 4.35273 19.6739 2.12191 -158.793 20.1306 175.213 -154.872 59.0376 -177.826 -0.696523 -16.97 -36.4042 -63.5651 43.0984 -93.969 8.8974 14.1893 -32.212 0.420957 0.000575423 0.35866 -2.20339 6.48017 48.2563 -65.3058 -32.3715 93.4793 7.77775 -12.9381 31.4878 0.58676 0.00033116 0.0646654 -50.4764 -6.66181 92.4202 -1.55363 34.1963 -10.6968 7.01303 -18.5786 -1.32838 -1.45826 -0.706786 9.06582 -35.9418 4.44592 88.0605 1.97953 46.7746 -1.95219 -7.74233 -9.48811 1.24981 2.25856 -17.0856 -13.4449 
44.7804 96.3235 -275.455 8.03456 -67.7601 -81.285 -70.1915 0 88.8779 72.7722 69.6382 13.9668 4.41131 19.3068 2.45714 -158.757 20.2079 175.063 -154.862 59.0251 -178.998 -0.750868 -17.1757 -36.4175 -64.1464 42.5714 -93.9439 9.27073 14.199 -33.2778 0.420957 0.000575423 0.35866 -2.13645 6.21783 48.6281 -66.4136 -32.1338 91.9162 8.22358 -13.4168 31.9864 0.58676 0.00033116 0.0646654 -51.7222 -6.46626 93.0469 -1.01495 33.2528 -11.4839 7.15604 -19.0579 -1.33164 -1.54883 0.354999 6.72762 -34.356 4.39896 87.7684 2.0364 44.4447 0.0629998 -6.73782 -8.44549 1.18217 2.32028 -16.3365 -17.0407 
44.9067 96.2203 -274.152 8.69604 -67.3233 -80.2919 -70.1915 0 88.8779 72.4107 69.1598 14.6283 4.79375 19.0205 1.92348 -157.989 20.0158 174.088 -154.731 58.8547 -178.496 -0.693579 -17.1278 -35.7395 -64.5005 41.9726 -94.4249 9.53601 14.0138 -34.3765 0.420957 0.000575423 0.35866 -2.17554 6.21914 49.2086 -65.562 -31.3891 92.1792 8.18309 -13.757 31.2371 0.58676 0.00033116 0.0646654 -52.234 -5.72104 94.4586 -0.789983 33.2731 -13.9565 7.24501 -19.9726 -1.34345 -2.11391 1.44367 6.69051 -32.5693 4.56544 87.6546 1.96227 40.9491 1.89038 -6.23636 -6.96883 1.11882 2.36639 -16.427 -19.8185 
45.1223 95.9754 -272.676 10.1648 -67.2197 -78.9212 -70.1915 0 88.8779 73.5316 68.9243 12.9624 4.57948 18.5284 2.48813 -158.012 19.8748 174.853 -155.295 58.7946 -177.807 -0.742535 -17.203 -36.1866 -65.0733 40.8724 -94.2863 9.81902 13.66 -35.8521 0.420957 0.000575423 0.35866 -2.07215 6.1142 48.2034 -66.1631 -32.3435 92.0253 8.84479 -15.2422 30.6852 0.58676 0.00033116 0.0646654 -53.3181 -5.38762 95.774 -0.814083 33.1234 -15.6695 7.48348 -20.7096 -1.34258 -1.69694 0.870449 6.15418 -31.0835 3.95455 87.2121 1.70547 37.5266 1.86264 -6.42031 -5.71775 1.10398 2.30688 -16.1853 -16.1498 
45.2768 95.6345 -270.854 7.31569 -67.2893 -82.3808 -70.1915 0 88.8779 72.6766 69.2706 14.0636 5.02861 19.2486 1.55427 -158.107 20.1448 174.716 -155.464 59.0656 -178.05 -0.739503 -17.2035 -36.1397 -65.1274 39.6034 -94.8434 9.49659 12.871 -36.5289 0.420957 0.000575423 0.35866 -2.15081 6.16289 49.1394 -63.7204 -31.1532 92.8657 7.35394 -13.4738 29.1268 0.58676 0.00033116 0.0646654 -54.9568 -5.1634 97.9119 -1.02419 32.3123 -17.187 8.67014 -20.7556 -1.27625 -0.845044 -1.63907 8.57494 -29.4356 4.52078 88.4954 1.50102 34.5112 1.70289 -6.44943 -4.20009 1.07338 2.21731 -15.3798 -12.2565 
45.4788 95.3346 -269.009 8.18465 -67.1927 -81.9365 -70.1915 0 88.8779 72.65 69.1576 13.4295 5.19626 18.9977 1.99606 -157.876 20.0842 175.306 -155.798 59.0803 -177.219 -0.815582 -17.4095 -36.4734 -66.1775 38.772 -94.884 10.0362 13.351 -37.0743 0.420957 0.000575423 0.35866 -2.20123 6.19905 49.7027 -63.085 -30.3398 92.5105 7.26371 -13.9871 28.0017 0.58676 0.00033116 0.0646654 -56.5298 -5.5139 98.5189 -1.01832 31.641 -18.3653 8.48718 -21.487 -1.29057 -0.92439 -1.52268 8.65309 -28.1741 3.98498 88.3416 1.38862 31.5779 2.69517 -7.4429 -1.92671 1.13665 2.21116 -16.1919 -11.2734 
45.6497 94.8838 -266.96 8.3816 -66.9349 -81.8878 -70.1915 0 88.8779 72.5245 68.9106 13.7695 5.49498 18.8887 1.60791 -157.295 19.7716 175.054 -155.148 58.6995 -177.472 -0.840017 -17.5407 -36.3337 -66.8191 38.2947 -95.1703 9.86249 13.1414 -37.0162 0.420957 0.000575423 0.35866 -2.22062 6.14314 50.302 -62.3982 -29.4653 92.501 6.73787 -14.2373 27.0418 0.58676 0.00033116 0.0646654 -57.7085 -5.34089 99.1419 -1.29371 31.5622 -18.391 8.93068 -22.406 -1.26372 -0.522008 -2.01735 7.96645 -26.981 3.79171 88.0682 1.04889 29.0947 2.80341 -5.17386 -2.62473 0.902726 2.08736 -13.6328 -9.87057 
45.8415 94.3719 -264.714 9.2201 -67.163 -81.374 -70.1915 0 88.8779 74.0284 68.8143 12.1209 5.54188 18.6691 1.46501 -157.065 19.672 175.428 -155.74 58.6705 -176.869 -0.822616 -17.5118 -36.1921 -66.9755 37.8494 -95.8707 9.57986 13.0552 -36.3873 0.420957 0.000575423 0.35866 -2.21909 6.11786 50.42 -63.2618 -29.5065 91.6661 6.79343 -15.6494 26.5337 0.58676 0.00033116 0.0646654 -59.5499 -5.91622 98.9202 -1.00829 31.5119 -18.983 8.21796 -23.6272 -1.32479 -0.979674 -1.59284 9.13925 -26.2497 3.19103 87.1401 1.00842 27.9753 2.53416 -6.81318 -1.9715 1.06627 2.12132 -15.7086 -8.03838 
46.0467 93.8073 -262.299 9.07812 -67.7591 -81.9277 -70.1915 0 88.8779 76.4409 69.1115 9.2796 5.413 18.6346 1.83001 -156.885 19.6777 175.524 -154.842 58.5754 -177.484 -0.872659 -17.6273 -36.4762 -66.5391 37.2376 -96.49 9.02914 12.6248 -35.6594 0.420957 0.000575423 0.35866 -2.21619 6.02743 50.8881 -62.5385 -28.4373 91.6282 5.88974 -15.2854 25.9112 0.58676 0.00033116 0.0646654 -61.7552 -6.69829 98.4583 -0.797072 31.425 -18.6664 7.12646 -23.8888 -1.42066 -0.112925 -3.41622 10.0245 -25.792 3.13624 87.3065 1.12169 28.8781 3.3716 -4.74486 -3.11058 0.874402 2.17721 -13.8416 -11.8791 
46.0131 93.4273 -259.399 10.6068 -67.0893 -79.8263 -70.1915 0 88.8779 74.7953 68.4147 11.486 5.85391 18.0524 1.82096 -156.503 19.4426 175.031 -154.294 58.2421 -178.243 -0.890022 -17.718 -36.3883 -66.0925 37.1623 -97.1293 8.68652 12.8248 -34.1944 0.420957 0.000575423 0.35866 -2.19734 5.82086 51.8097 -63.1819 -27.7365 90.0964 5.20051 -14.8943 25.4761 0.58676 0.00033116 0.0646654 -62.1687 -5.98843 97.869 -0.702376 33.3765 -21.7378 8.84005 -20.8176 -1.26679 2.96497 -9.44029 13.8577 -25.0578 3.59723 87.5965 1.28746 30.4798 2.5775 -4.40382 -3.26164 0.845221 2.21887 -13.8842 -12.8888 
